<svg width="16" height="16" viewBox="0 0 16 16" fill="none" xmlns="http://www.w3.org/2000/svg">
<rect x="0.21875" y="6.6665" width="1.9726" height="2.44444" fill="white"/>
<path fill-rule="evenodd" clip-rule="evenodd" d="M0.21875 2C0.21875 0.895431 1.11418 0 2.21875 0H13.9996C15.1041 0 15.9996 0.895431 15.9996 2V14C15.9996 15.1046 15.1041 16 13.9996 16H2.21875C1.11418 16 0.21875 15.1046 0.21875 14V9.10714C0.239068 9.10965 0.259764 9.11095 0.280762 9.11095H1.69172C1.96786 9.11095 2.19172 8.88709 2.19172 8.61095V7.1665C2.19172 6.89036 1.96786 6.6665 1.69172 6.6665H0.280762C0.259764 6.6665 0.239068 6.6678 0.21875 6.67031V2Z" fill="#1782E5"/>
<mask id="path-3-inside-1" fill="white">
<path d="M11.5225 7.98034L13.0671 7.9644L13.0513 8.47124L12.9723 8.91539L12.8513 9.33886L12.7092 9.74144L12.525 10.1022L12.3197 10.4421L12.0933 10.7611L11.784 11.1443L11.4735 11.4009L11.0388 11.7642L10.6445 12.0005L10.2498 12.1946L9.83409 12.3678L9.45944 12.4772L9.04283 12.566L8.66733 12.5909L8.4586 12.5931L8.08289 12.597L8.0946 13.758L6.13403 11.8571L8.05584 9.91612L8.06755 11.0771L8.27628 11.075L8.56851 11.072L8.81877 11.0483L8.94379 11.0259L9.06882 11.0035L9.1521 10.9815L9.31866 10.9375L9.44347 10.894L9.56828 10.8505L9.71375 10.7857L9.83835 10.7211L9.96295 10.6564L10.0667 10.592L10.1911 10.5063L10.3154 10.4206L10.419 10.3351L10.5638 10.2069L10.7497 10.015L10.8735 9.86594L10.9764 9.7171L11.1408 9.46207L11.2635 9.20747L11.345 9.01662L11.4057 8.826L11.466 8.59315L11.5054 8.36052L11.5242 8.14921L11.5233 8.06478L11.5225 7.98034Z"/>
</mask>
<path d="M13.0671 7.9644L24.0617 8.3038L24.418 -3.15332L12.9561 -3.03504L13.0671 7.9644ZM11.5225 7.98034L11.4115 -3.0191L0.412067 -2.90559L0.52305 8.09385L11.5225 7.98034ZM11.5242 8.14921L22.4811 9.11862L22.5291 8.57821L22.5236 8.03571L11.5242 8.14921ZM11.5054 8.36052L22.3509 10.1951L22.4238 9.76475L22.4624 9.32993L11.5054 8.36052ZM11.466 8.59315L22.1149 11.3476L22.2329 10.8919L22.3115 10.4278L11.466 8.59315ZM11.4057 8.826L21.8871 12.1615L21.9788 11.8732L22.0547 11.5804L11.4057 8.826ZM11.345 9.01662L21.4596 13.3382L21.6666 12.8539L21.8264 12.3521L11.345 9.01662ZM11.2635 9.20747L21.1728 13.9807L21.2805 13.7572L21.378 13.529L11.2635 9.20747ZM11.1408 9.46207L20.3854 15.4212L20.7544 14.8488L21.0501 14.2353L11.1408 9.46207ZM10.9764 9.7171L20.0248 15.9701L20.1252 15.8248L20.221 15.6763L10.9764 9.7171ZM10.8735 9.86594L19.3362 16.8912L19.6461 16.518L19.9219 16.1189L10.8735 9.86594ZM10.7497 10.015L18.6491 17.6682L18.9428 17.3651L19.2125 17.0403L10.7497 10.015ZM10.5638 10.2069L17.8523 18.444L18.169 18.1638L18.4632 17.8601L10.5638 10.2069ZM10.419 10.3351L17.4236 18.8149L17.5676 18.696L17.7075 18.5722L10.419 10.3351ZM10.3154 10.4206L16.5563 19.4774L16.9508 19.2055L17.3201 18.9005L10.3154 10.4206ZM10.1911 10.5063L3.95018 1.44952L3.95017 1.44952L10.1911 10.5063ZM10.0667 10.592L15.8676 19.9368L16.091 19.7981L16.3076 19.6488L10.0667 10.592ZM9.96295 10.6564L15.0254 20.4211L15.4027 20.2255L15.7638 20.0012L9.96295 10.6564ZM9.83835 10.7211L14.9008 20.4858L14.9008 20.4858L9.83835 10.7211ZM9.71375 10.7857L14.1897 20.8328L14.4871 20.7003L14.7762 20.5504L9.71375 10.7857ZM9.56828 10.8505L13.1871 21.2374L13.6228 21.0855L14.0443 20.8977L9.56828 10.8505ZM9.44347 10.894L13.0623 21.2809L13.0623 21.2809L9.44347 10.894ZM9.31866 10.9375L12.1224 21.5736L12.5347 21.4648L12.9375 21.3244L9.31866 10.9375ZM9.1521 10.9815L6.34839 0.345411L6.34839 0.345412L9.1521 10.9815ZM9.06882 11.0035L11.0064 21.831L11.4433 21.7528L11.8725 21.6395L9.06882 11.0035ZM8.94379 11.0259L10.8814 21.8534L10.8814 21.8534L8.94379 11.0259ZM8.81877 11.0483L9.85306 21.9993L10.3073 21.9563L10.7564 21.8758L8.81877 11.0483ZM8.56851 11.072L8.67949 22.0714L9.14216 22.0666L9.6028 22.023L8.56851 11.072ZM8.06755 11.0771L-2.93186 11.1906L-2.82088 22.1901L8.17854 22.0766L8.06755 11.0771ZM8.05584 9.91612L19.0553 9.80262L18.7893 -16.5565L0.240129 2.17746L8.05584 9.91612ZM6.13403 11.8571L-1.68168 4.11841L-9.5038 12.0184L-1.5239 19.7554L6.13403 11.8571ZM8.0946 13.758L0.436669 21.6563L19.36 40.0035L19.094 13.6445L8.0946 13.758ZM8.08289 12.597L7.97191 1.59753L-3.02751 1.71104L-2.91653 12.7105L8.08289 12.597ZM8.66733 12.5909L8.77832 23.5904L9.08707 23.5872L9.39516 23.5667L8.66733 12.5909ZM9.04283 12.566L9.77066 23.5417L10.5592 23.4892L11.3322 23.3246L9.04283 12.566ZM9.45944 12.4772L11.7488 23.2358L12.1487 23.1507L12.5411 23.0361L9.45944 12.4772ZM9.83409 12.3678L12.9157 22.9266L13.4999 22.756L14.0618 22.522L9.83409 12.3678ZM10.2498 12.1946L14.4775 22.3488L14.7942 22.2169L15.102 22.0655L10.2498 12.1946ZM10.6445 12.0005L15.4966 21.8715L15.9063 21.67L16.2979 21.4353L10.6445 12.0005ZM11.0388 11.7642L16.6921 21.199L17.4312 20.756L18.0924 20.2034L11.0388 11.7642ZM11.4735 11.4009L4.46886 2.92099L4.4443 2.94129L4.41985 2.96172L11.4735 11.4009ZM11.784 11.1443L18.7886 19.6242L19.6454 18.9164L20.3433 18.0516L11.784 11.1443ZM12.0933 10.7611L20.6526 17.6684L20.8662 17.4037L21.0631 17.1264L12.0933 10.7611ZM12.3197 10.4421L21.2895 16.8074L21.5247 16.476L21.7348 16.1282L12.3197 10.4421ZM12.525 10.1022L21.9401 15.7883L22.1429 15.4525L22.3214 15.1031L12.525 10.1022ZM12.7092 9.74144L22.5056 14.7423L22.8386 14.0902L23.0822 13.3999L12.7092 9.74144ZM12.8513 9.33886L23.2243 12.9973L23.3359 12.6809L23.4281 12.3582L12.8513 9.33886ZM12.9723 8.91539L23.5491 11.9348L23.7036 11.3937L23.8022 10.8398L12.9723 8.91539ZM13.0513 8.47124L23.8812 10.3956L24.0211 9.60909L24.046 8.81063L13.0513 8.47124ZM12.9561 -3.03504L11.4115 -3.0191L11.6334 18.9798L13.1781 18.9638L12.9561 -3.03504ZM0.52305 8.09385L0.523902 8.17829L22.5227 7.95127L22.5219 7.86684L0.52305 8.09385ZM0.523902 8.17829L0.524754 8.26272L22.5236 8.03571L22.5227 7.95127L0.523902 8.17829ZM0.567216 7.17981L0.548473 7.39111L22.4624 9.32993L22.4811 9.11862L0.567216 7.17981ZM0.659944 6.52589L0.62054 6.75852L22.3115 10.4278L22.3509 10.1951L0.659944 6.52589ZM0.817112 5.83874L0.756836 6.07159L22.0547 11.5804L22.1149 11.3476L0.817112 5.83874ZM0.924425 5.49052L0.863722 5.68115L21.8264 12.3521L21.8871 12.1615L0.924425 5.49052ZM1.23052 4.69506L1.14894 4.8859L21.378 13.529L21.4596 13.3382L1.23052 4.69506ZM1.35416 4.43425L1.23148 4.68885L21.0501 14.2353L21.1728 13.9807L1.35416 4.43425ZM1.89618 3.50289L1.73175 3.75792L20.221 15.6763L20.3854 15.4212L1.89618 3.50289ZM1.92794 3.46411L1.82506 3.61295L19.9219 16.1189L20.0248 15.9701L1.92794 3.46411ZM2.41075 2.84064L2.28701 2.98969L19.2125 17.0403L19.3362 16.8912L2.41075 2.84064ZM2.85035 2.36176L2.66441 2.55368L18.4632 17.8601L18.6491 17.6682L2.85035 2.36176ZM3.2753 1.96978L3.13047 2.09794L17.7075 18.5722L17.8523 18.444L3.2753 1.96978ZM3.41434 1.85521L3.31083 1.94072L17.3201 18.9005L17.4236 18.8149L3.41434 1.85521ZM4.07456 1.36379L3.95018 1.44952L16.4319 19.5631L16.5563 19.4774L4.07456 1.36379ZM3.95017 1.44952L3.82579 1.53525L16.3076 19.6488L16.432 19.5631L3.95017 1.44952ZM4.2658 1.24725L4.16207 1.31166L15.7638 20.0012L15.8676 19.9368L4.2658 1.24725ZM4.90048 0.891764L4.77588 0.956383L14.9008 20.4858L15.0254 20.4211L4.90048 0.891764ZM4.77589 0.95638L4.65129 1.021L14.7762 20.5504L14.9008 20.4858L4.77589 0.95638ZM5.23778 0.738526L5.09231 0.803361L14.0443 20.8977L14.1897 20.8328L5.23778 0.738526ZM5.94947 0.463637L5.82465 0.507147L13.0623 21.2809L13.1871 21.2374L5.94947 0.463637ZM5.82466 0.507145L5.69985 0.550655L12.9375 21.3244L13.0623 21.2809L5.82466 0.507145ZM6.51495 0.30147L6.34839 0.345411L11.9558 21.6176L12.1224 21.5736L6.51495 0.30147ZM6.34839 0.345412L6.26511 0.367383L11.8725 21.6395L11.9558 21.6176L6.34839 0.345412ZM7.13121 0.175871L7.00618 0.198272L10.8814 21.8534L11.0064 21.831L7.13121 0.175871ZM7.00619 0.198271L6.88116 0.220672L10.7564 21.8758L10.8814 21.8534L7.00619 0.198271ZM7.78447 0.0972025L7.53421 0.120896L9.6028 22.023L9.85306 21.9993L7.78447 0.0972025ZM8.45752 0.0725104L8.1653 0.0755259L8.38727 22.0744L8.67949 22.0714L8.45752 0.0725104ZM8.1653 0.0755259L7.95657 0.0776799L8.17854 22.0766L8.38727 22.0744L8.1653 0.0755259ZM19.067 10.9636L19.0553 9.80262L-2.94357 10.0296L-2.93186 11.1906L19.067 10.9636ZM0.240129 2.17746L-1.68168 4.11841L13.9497 19.5957L15.8715 17.6548L0.240129 2.17746ZM-1.5239 19.7554L0.436669 21.6563L15.7525 5.85962L13.792 3.95873L-1.5239 19.7554ZM19.094 13.6445L19.0823 12.4835L-2.91653 12.7105L-2.90481 13.8715L19.094 13.6445ZM8.19387 23.5964L8.56959 23.5925L8.34762 1.59365L7.97191 1.59753L8.19387 23.5964ZM8.56959 23.5925L8.77832 23.5904L8.55635 1.5915L8.34762 1.59365L8.56959 23.5925ZM9.39516 23.5667L9.77066 23.5417L8.31501 1.5902L7.93951 1.61518L9.39516 23.5667ZM11.3322 23.3246L11.7488 23.2358L7.17007 1.71858L6.75346 1.80733L11.3322 23.3246ZM12.5411 23.0361L12.9157 22.9266L6.75247 1.80894L6.37782 1.91837L12.5411 23.0361ZM14.0618 22.522L14.4775 22.3488L6.02217 2.04042L5.60641 2.2136L14.0618 22.522ZM15.102 22.0655L15.4966 21.8715L5.79239 2.1296L5.39772 2.32368L15.102 22.0655ZM16.2979 21.4353L16.6921 21.199L5.38543 2.32943L4.99118 2.56573L16.2979 21.4353ZM18.0924 20.2034L18.5271 19.84L4.41985 2.96172L3.98513 3.3251L18.0924 20.2034ZM18.4781 19.8807L18.7886 19.6242L4.7794 2.66445L4.46886 2.92099L18.4781 19.8807ZM20.3433 18.0516L20.6526 17.6684L3.53396 3.85383L3.2247 4.23702L20.3433 18.0516ZM21.0631 17.1264L21.2895 16.8074L3.34987 4.0769L3.12346 4.39591L21.0631 17.1264ZM21.7348 16.1282L21.9401 15.7883L3.10992 4.41618L2.90459 4.75607L21.7348 16.1282ZM22.3214 15.1031L22.5056 14.7423L2.91288 4.74059L2.72865 5.10138L22.3214 15.1031ZM23.0822 13.3999L23.2243 12.9973L2.47836 5.68044L2.33629 6.08302L23.0822 13.3999ZM23.4281 12.3582L23.5491 11.9348L2.39551 5.896L2.27453 6.31947L23.4281 12.3582ZM23.8022 10.8398L23.8812 10.3956L2.22141 6.54686L2.14239 6.99101L23.8022 10.8398ZM24.046 8.81063L24.0617 8.3038L2.07241 7.62501L2.05665 8.13184L24.046 8.81063Z" fill="white" mask="url(#path-3-inside-1)"/>
<ellipse cx="11.7612" cy="5.8689" rx="1.3901" ry="1.31812" fill="white"/>
<ellipse cx="4.89694" cy="10.1091" rx="1.3901" ry="1.34009" fill="white"/>
<mask id="path-7-inside-2" fill="white">
<path d="M5.11402 7.96412H3.56934L3.59021 7.45747L3.67371 7.01416L3.79895 6.59196L3.94507 6.19087L4.13294 5.832L4.34168 5.49423L4.57129 5.17758L4.8844 4.7976L5.19752 4.54428L5.63587 4.18541L6.03248 3.9532L6.42909 3.76321L6.84657 3.59432L7.22231 3.48877L7.63979 3.40433L8.01552 3.38322H8.22426H8.6V2.22217L10.5413 4.14319L8.6 6.06421V4.90315H8.39126H8.09902L7.84853 4.92426L7.72328 4.94537L7.59804 4.96648L7.51454 4.98759L7.34755 5.02981L7.22231 5.07203L7.09706 5.11425L6.95094 5.17758L6.8257 5.24091L6.70045 5.30424L6.59608 5.36757L6.47084 5.45201L6.34559 5.53645L6.24122 5.62089L6.0951 5.74756L5.90724 5.93755L5.78199 6.08532L5.67762 6.23309L5.51063 6.48641L5.38538 6.73973L5.30189 6.92972L5.23926 7.11971L5.17664 7.35192L5.13489 7.58413L5.11402 7.79524V7.87968V7.96412Z"/>
</mask>
<path d="M3.56934 7.96412L-7.42134 7.51129L-7.89321 18.9641H3.56934V7.96412ZM5.11402 7.96412V18.9641H16.114V7.96412H5.11402ZM5.11402 7.79524L-5.83259 6.71281L-5.88598 7.25271V7.79524H5.11402ZM5.13489 7.58413L-5.69153 5.6377L-5.76877 6.06732L-5.81172 6.50171L5.13489 7.58413ZM5.17664 7.35192L-5.44394 4.48778L-5.56649 4.94223L-5.64978 5.40549L5.17664 7.35192ZM5.23926 7.11971L-5.20787 3.67627L-5.30256 3.96353L-5.38131 4.25557L5.23926 7.11971ZM5.30189 6.92972L-4.76852 2.50402L-4.9804 2.98613L-5.14525 3.48627L5.30189 6.92972ZM5.38538 6.73973L-4.47526 1.86452L-4.58521 2.08691L-4.68503 2.31403L5.38538 6.73973ZM5.51063 6.48641L-3.67339 0.432173L-4.0482 1.00074L-4.35002 1.6112L5.51063 6.48641ZM5.67762 6.23309L-3.30726 -0.112932L-3.40917 0.0313607L-3.5064 0.178852L5.67762 6.23309ZM5.78199 6.08532L-2.60944 -1.02692L-2.92306 -0.656895L-3.20289 -0.260703L5.78199 6.08532ZM5.90724 5.93755L-1.91453 -1.79679L-2.2113 -1.49667L-2.48419 -1.17469L5.90724 5.93755ZM6.0951 5.74756L-1.10993 -2.56434L-1.4294 -2.28741L-1.72667 -1.98678L6.0951 5.74756ZM6.24122 5.62089L-0.677471 -2.93081L-0.822676 -2.81334L-0.963808 -2.691L6.24122 5.62089ZM6.34559 5.53645L0.196377 -3.58424L-0.200749 -3.3165L-0.5731 -3.01525L6.34559 5.53645ZM6.59608 5.36757L0.889804 -4.0366L0.664946 -3.90016L0.446867 -3.75313L6.59608 5.36757ZM6.70045 5.30424L1.73675 -4.51216L1.3575 -4.32039L0.994174 -4.09993L6.70045 5.30424ZM6.95094 5.17758L2.57656 -4.91523L2.27781 -4.78574L1.98724 -4.63882L6.95094 5.17758ZM7.09706 5.11425L3.58321 -5.30942L3.14601 -5.16203L2.72268 -4.97856L7.09706 5.11425ZM7.22231 5.07203L3.70847 -5.35164L3.70845 -5.35164L7.22231 5.07203ZM7.34755 5.02981L4.6513 -5.63463L4.23784 -5.53009L3.83372 -5.39386L7.34755 5.02981ZM7.51454 4.98759L10.2108 15.652L10.2108 15.652L7.51454 4.98759ZM7.59804 4.96648L5.76978 -5.88052L5.33209 -5.80675L4.90176 -5.69795L7.59804 4.96648ZM7.72328 4.94537L9.55155 15.7924L9.55155 15.7924L7.72328 4.94537ZM7.84853 4.92426L6.92478 -6.03688L6.47015 -5.99857L6.02026 -5.92274L7.84853 4.92426ZM8.09902 4.90315V-6.09685H7.63632L7.17526 -6.05799L8.09902 4.90315ZM8.6 4.90315H19.6V-6.09685H8.6V4.90315ZM8.6 6.06421H-2.4V32.4247L16.3372 13.8831L8.6 6.06421ZM10.5413 4.14319L18.2785 11.9621L26.1799 4.14319L18.2785 -3.67571L10.5413 4.14319ZM8.6 2.22217L16.3372 -5.59673L-2.4 -24.1383L-2.4 2.22217H8.6ZM8.6 3.38322V14.3832H19.6V3.38322H8.6ZM8.01552 3.38322V-7.61678H7.70675L7.39847 -7.59946L8.01552 3.38322ZM7.63979 3.40433L7.02274 -7.57835L6.23369 -7.53401L5.45908 -7.37734L7.63979 3.40433ZM7.22231 3.48877L5.04159 -7.2929L4.64092 -7.21186L4.24736 -7.1013L7.22231 3.48877ZM6.84657 3.59432L3.87163 -6.99575L3.28572 -6.83116L2.72155 -6.60294L6.84657 3.59432ZM6.42909 3.76321L2.30407 -6.43406L1.98612 -6.30544L1.67679 -6.15726L6.42909 3.76321ZM6.03248 3.9532L1.28019 -5.96727L0.868523 -5.77007L0.474614 -5.53944L6.03248 3.9532ZM5.63587 4.18541L0.0780056 -5.30723L-0.665555 -4.87188L-1.33226 -4.32606L5.63587 4.18541ZM5.19752 4.54428L12.1162 13.096L12.141 13.0759L12.1657 13.0557L5.19752 4.54428ZM4.8844 4.7976L-2.0343 -3.7541L-2.89816 -3.05519L-3.60479 -2.19765L4.8844 4.7976ZM4.57129 5.17758L-3.91791 -1.81767L-4.13419 -1.55519L-4.33385 -1.27985L4.57129 5.17758ZM4.34168 5.49423L-4.56346 -0.963198L-4.80197 -0.634281L-5.01557 -0.288666L4.34168 5.49423ZM4.13294 5.832L-5.22431 0.0490959L-5.43054 0.382796L-5.61248 0.730338L4.13294 5.832ZM3.94507 6.19087L-5.80034 1.08921L-6.13986 1.73778L-6.39044 2.42561L3.94507 6.19087ZM3.79895 6.59196L-6.53656 2.82671L-6.65141 3.14194L-6.74682 3.4636L3.79895 6.59196ZM3.67371 7.01416L-6.87207 3.8858L-7.03208 4.42522L-7.13623 4.97815L3.67371 7.01416ZM3.59021 7.45747L-7.21972 5.42146L-7.36758 6.20649L-7.40047 7.00465L3.59021 7.45747ZM3.56934 18.9641H5.11402V-3.03588H3.56934V18.9641ZM16.114 7.96412V7.87968H-5.88598V7.96412H16.114ZM16.114 7.87968V7.79524H-5.88598V7.87968H16.114ZM16.0606 8.87766L16.0815 8.66656L-5.81172 6.50171L-5.83259 6.71281L16.0606 8.87766ZM15.9613 9.53057L16.0031 9.29836L-5.64978 5.40549L-5.69153 5.6377L15.9613 9.53057ZM15.7972 10.2161L15.8598 9.98385L-5.38131 4.25557L-5.44394 4.48778L15.7972 10.2161ZM15.6864 10.5632L15.749 10.3732L-5.14525 3.48627L-5.20787 3.67627L15.6864 10.5632ZM15.3723 11.3554L15.4558 11.1654L-4.68503 2.31403L-4.76852 2.50402L15.3723 11.3554ZM15.246 11.6149L15.3713 11.3616L-4.35002 1.6112L-4.47526 1.86452L15.246 11.6149ZM14.6946 12.5406L14.8616 12.2873L-3.5064 0.178852L-3.67339 0.432173L14.6946 12.5406ZM14.6625 12.5791L14.7669 12.4313L-3.20289 -0.260703L-3.30726 -0.112932L14.6625 12.5791ZM14.1734 13.1976L14.2987 13.0498L-2.48419 -1.17469L-2.60944 -1.02692L14.1734 13.1976ZM13.729 13.6719L13.9169 13.4819L-1.72667 -1.98678L-1.91453 -1.79679L13.729 13.6719ZM13.3001 14.0594L13.4463 13.9328L-0.963808 -2.691L-1.10993 -2.56434L13.3001 14.0594ZM13.1599 14.1726L13.2643 14.0882L-0.5731 -3.01525L-0.677471 -2.93081L13.1599 14.1726ZM12.4948 14.6572L12.6201 14.5727L0.321622 -3.66869L0.196377 -3.58424L12.4948 14.6572ZM12.6201 14.5727L12.7453 14.4883L0.446867 -3.75313L0.321622 -3.66869L12.6201 14.5727ZM12.3024 14.7717L12.4067 14.7084L0.994174 -4.09993L0.889804 -4.0366L12.3024 14.7717ZM11.6642 15.1206L11.7894 15.0573L1.862 -4.57549L1.73675 -4.51216L11.6642 15.1206ZM11.7894 15.0573L11.9146 14.994L1.98724 -4.63882L1.862 -4.57549L11.7894 15.0573ZM11.3253 15.2704L11.4714 15.2071L2.72268 -4.97856L2.57656 -4.91523L11.3253 15.2704ZM10.6109 15.5379L10.7362 15.4957L3.70845 -5.35164L3.58321 -5.30942L10.6109 15.5379ZM10.7361 15.4957L10.8614 15.4535L3.83372 -5.39386L3.70847 -5.35164L10.7361 15.4957ZM10.0438 15.6943L10.2108 15.652L4.8183 -5.67685L4.6513 -5.63463L10.0438 15.6943ZM10.2108 15.652L10.2943 15.6309L4.90176 -5.69795L4.81827 -5.67684L10.2108 15.652ZM9.4263 15.8135L9.55155 15.7924L5.89502 -5.90163L5.76978 -5.88052L9.4263 15.8135ZM9.55155 15.7924L9.6768 15.7713L6.02026 -5.92274L5.89502 -5.90163L9.55155 15.7924ZM8.77228 15.8854L9.02277 15.8643L7.17526 -6.05799L6.92478 -6.03688L8.77228 15.8854ZM8.09902 15.9032H8.39126V-6.09685H8.09902V15.9032ZM8.39126 15.9032H8.6V-6.09685H8.39126V15.9032ZM-2.4 4.90315V6.06421H19.6V4.90315H-2.4ZM16.3372 13.8831L18.2785 11.9621L2.80405 -3.67571L0.862755 -1.75469L16.3372 13.8831ZM18.2785 -3.67571L16.3372 -5.59673L0.862755 10.0411L2.80405 11.9621L18.2785 -3.67571ZM-2.4 2.22217V3.38322H19.6V2.22217H-2.4ZM8.6 -7.61678H8.22426V14.3832H8.6V-7.61678ZM8.22426 -7.61678H8.01552V14.3832H8.22426V-7.61678ZM7.39847 -7.59946L7.02274 -7.57835L8.25684 14.387L8.63257 14.3659L7.39847 -7.59946ZM5.45908 -7.37734L5.04159 -7.2929L9.40302 14.2704L9.8205 14.186L5.45908 -7.37734ZM4.24736 -7.1013L3.87163 -6.99575L9.82152 14.1844L10.1973 14.0788L4.24736 -7.1013ZM2.72155 -6.60294L2.30407 -6.43406L10.5541 13.9605L10.9716 13.7916L2.72155 -6.60294ZM1.67679 -6.15726L1.28019 -5.96727L10.7848 13.8737L11.1814 13.6837L1.67679 -6.15726ZM0.474614 -5.53944L0.0780056 -5.30723L11.1937 13.678L11.5903 13.4458L0.474614 -5.53944ZM-1.33226 -4.32606L-1.77062 -3.96719L12.1657 13.0557L12.604 12.6969L-1.33226 -4.32606ZM-1.72119 -4.00742L-2.0343 -3.7541L11.8031 13.3493L12.1162 13.096L-1.72119 -4.00742ZM-3.60479 -2.19765L-3.91791 -1.81767L13.0605 12.1728L13.3736 11.7928L-3.60479 -2.19765ZM-4.33385 -1.27985L-4.56346 -0.963198L13.2468 11.9517L13.4764 11.635L-4.33385 -1.27985ZM-5.01557 -0.288666L-5.22431 0.0490959L13.4902 11.6149L13.6989 11.2771L-5.01557 -0.288666ZM-5.61248 0.730338L-5.80034 1.08921L13.6905 11.2925L13.8784 10.9337L-5.61248 0.730338ZM-6.39044 2.42561L-6.53656 2.82671L14.1345 10.3572L14.2806 9.95612L-6.39044 2.42561ZM-6.74682 3.4636L-6.87207 3.8858L14.2195 10.1425L14.3447 9.72032L-6.74682 3.4636ZM-7.13623 4.97815L-7.21972 5.42146L14.4001 9.49349L14.4836 9.05018L-7.13623 4.97815ZM-7.40047 7.00465L-7.42134 7.51129L14.56 8.41694L14.5809 7.9103L-7.40047 7.00465Z" fill="white" mask="url(#path-7-inside-2)"/>
<path d="M0 7.13867C0 7.0006 0.111929 6.88867 0.25 6.88867H1.7226C1.86067 6.88867 1.9726 7.0006 1.9726 7.13867V8.63867C1.9726 8.77674 1.86067 8.88867 1.7226 8.88867H0.25C0.111929 8.88867 0 8.77674 0 8.63867V7.13867Z" fill="#1782E5"/>
<ellipse cx="0.986422" cy="7.88905" rx="0.547945" ry="0.555556" fill="white"/>
</svg>
