<svg width="512" height="512" viewBox="0 0 512 512" fill="none" xmlns="http://www.w3.org/2000/svg">
<rect x="7.87695" y="180" width="73.8462" height="138" fill="white"/>
<path fill-rule="evenodd" clip-rule="evenodd" d="M7.87695 60C7.87695 26.8629 34.7399 0 67.877 0H452C485.137 0 512 26.8629 512 60V452C512 485.137 485.137 512 452 512H67.877C34.7399 512 7.87695 485.137 7.87695 452V318H74.7231C78.5891 318 81.7231 314.866 81.7231 311V187C81.7231 183.134 78.5891 180 74.7231 180H7.87695V60Z" fill="#1782E5"/>
<path d="M220.091 379.94L245.46 354.046L245.472 355.209L245.621 370.208L260.621 370.052L267.27 369.982L276.578 369.885L277.216 369.879L277.85 369.818L285.822 369.055L286.448 368.995L287.067 368.883L291.049 368.162L295.032 367.441L295.633 367.332L296.224 367.175L298.877 366.467L304.182 365.053L304.749 364.902L305.303 364.707L309.278 363.306L313.254 361.905L313.852 361.695L314.431 361.434L319.065 359.347L319.472 359.163L319.868 358.956L323.837 356.876L327.806 354.795L328.323 354.525L328.816 354.215L332.12 352.142L332.426 351.95L332.721 351.744L336.684 348.984L328.114 336.677L336.684 348.984L340.646 346.225L341.183 345.85L341.687 345.43L344.984 342.677L345.18 342.514L345.37 342.344L349.984 338.218L350.414 337.833L350.813 337.417L356.736 331.238L357.134 330.823L357.499 330.379L361.441 325.58L361.86 325.07L362.232 324.526L365.509 319.734L365.645 319.536L365.774 319.334L371.012 311.124L371.509 310.345L371.906 309.511L375.814 301.315L375.959 301.012L376.09 300.702L378.688 294.558L378.966 293.902L379.18 293.222L381.114 287.086L381.236 286.696L381.338 286.3L383.258 278.804L383.416 278.188L383.521 277.561L384.752 270.212L404.199 270.01L402.068 282.118L398.544 294.583L394.495 306.179L389.313 316.433L383.329 326.445L376.7 335.884L368.083 346.674L359.355 353.962L359.321 353.99L359.288 354.018L346.341 364.954L335.327 371.626L323.738 377.385L311.7 382.453L301.108 385.579L289.452 388.088L279.001 388.791L272.778 388.856L260.81 388.981L245.81 389.137L245.96 404.136L245.972 405.299L220.091 379.94Z" stroke="white" stroke-width="30"/>
<ellipse cx="378.119" cy="187.399" rx="44.281" ry="42.4334" fill="white"/>
<ellipse cx="159.481" cy="323.893" rx="44.281" ry="43.1407" fill="white"/>
<path d="M292.444 157.47V156.307V141.307H277.444H270.794H261.485H260.847L260.212 141.361L252.233 142.041L251.607 142.094L250.987 142.2L246.997 142.879L243.008 143.559L242.405 143.661L241.813 143.813L239.154 144.492L233.834 145.852L233.266 145.997L232.71 146.186L228.721 147.545L224.731 148.904L224.131 149.109L223.55 149.363L218.895 151.402L218.486 151.581L218.088 151.785L214.098 153.823L210.109 155.862L209.59 156.127L209.093 156.432L205.768 158.471L205.461 158.659L205.164 158.862L201.174 161.58L197.184 164.299L196.643 164.667L196.136 165.082L192.811 167.8L192.614 167.962L192.422 168.13L187.767 172.208L187.333 172.588L186.93 173L180.945 179.116L180.543 179.527L180.174 179.968L176.184 184.725L175.76 185.23L175.382 185.771L172.058 190.528L171.92 190.725L171.789 190.926L166.47 199.081L165.965 199.854L165.559 200.684L161.57 208.839L161.422 209.141L161.288 209.449L158.628 215.565L158.344 216.219L158.123 216.896L156.128 223.012L156.002 223.401L155.896 223.796L153.901 231.271L153.737 231.886L153.626 232.512L152.321 239.847H132.873L135.126 227.761L138.774 215.334L142.938 203.781L148.222 193.581L154.306 183.632L161.029 174.262L169.753 163.563L178.554 156.367L178.588 156.339L178.621 156.311L191.676 145.51L202.756 138.954L214.403 133.316L226.491 128.374L237.113 125.358L248.794 122.971L259.251 122.377H265.475H277.444H292.444V107.377V106.215L318.07 131.842L292.444 157.47Z" stroke="white" stroke-width="30"/>
<rect y="189" width="71.8769" height="117" rx="7" fill="#1782E5"/>
<ellipse cx="36.4304" cy="249" rx="14.7692" ry="15" fill="white"/>
</svg>
