<svg width="72" height="72" viewBox="0 0 72 72" fill="none" xmlns="http://www.w3.org/2000/svg">
<rect x="0.986328" y="25" width="10.8493" height="21" fill="white"/>
<path fill-rule="evenodd" clip-rule="evenodd" d="M0.986328 8C0.986328 3.58172 4.56805 0 8.98633 0H64C68.4183 0 72 3.58172 72 8V64C72 68.4183 68.4183 72 64 72H8.98633C4.56806 72 0.986328 68.4183 0.986328 64V46H10.8356C11.3879 46 11.8356 45.5523 11.8356 45V26C11.8356 25.4477 11.3879 25 10.8356 25H0.986328V8Z" fill="#1782E5"/>
<mask id="path-3-inside-1" fill="white">
<path d="M51.8496 35.9106L58.8003 35.8388L58.7294 38.1196L58.3738 40.1183L57.8294 42.0239L57.1901 43.8355L56.3611 45.4591L55.4371 46.9886L54.4183 48.4241L53.0266 50.1485L51.6292 51.3029L49.673 52.9381L47.8989 54.0014L46.1229 54.8748L44.2519 55.6541L42.566 56.1465L40.6913 56.5458L39.0015 56.6582L38.0622 56.6679L36.3715 56.6854L36.4242 61.9099L27.6017 53.3559L36.2498 44.6216L36.3025 49.8461L37.2418 49.8364L38.5568 49.8228L39.683 49.7162L40.2456 49.6154L40.8082 49.5146L41.183 49.4157L41.9325 49.218L42.4941 49.0222L43.0558 48.8264L43.7104 48.5346L44.2711 48.2438L44.8318 47.953L45.2986 47.6632L45.8583 47.2774L46.4181 46.8917L46.8839 46.5069L47.5356 45.9301L48.3723 45.0665L48.9292 44.3957L49.3921 43.726L50.1321 42.5783L50.6841 41.4326L51.0512 40.5738L51.3244 39.716L51.5956 38.6682L51.7729 37.6214L51.8573 36.6705L51.8535 36.2905L51.8496 35.9106Z"/>
</mask>
<path d="M58.8003 35.8388L80.7897 36.5176L81.5022 13.6034L58.5784 13.84L58.8003 35.8388ZM51.8496 35.9106L51.6277 13.9117L29.6288 14.1387L29.8508 36.1376L51.8496 35.9106ZM51.8573 36.6705L73.7712 38.6093L73.8671 37.5285L73.8561 36.4435L51.8573 36.6705ZM51.7729 37.6214L73.4639 41.2906L73.6097 40.4298L73.6869 39.5602L51.7729 37.6214ZM51.5956 38.6682L72.8934 44.177L73.1294 43.2656L73.2866 42.3374L51.5956 38.6682ZM51.3244 39.716L72.287 46.387L72.4706 45.8105L72.6222 45.2248L51.3244 39.716ZM51.0512 40.5738L71.2803 49.217L71.6943 48.2484L72.0139 47.2448L51.0512 40.5738ZM50.6841 41.4326L70.5028 50.9791L70.7182 50.532L70.9132 50.0758L50.6841 41.4326ZM50.1321 42.5783L68.6213 54.4967L69.3594 53.3518L69.9507 52.1248L50.1321 42.5783ZM49.3921 43.726L67.489 56.232L67.6899 55.9413L67.8814 55.6443L49.3921 43.726ZM48.9292 44.3957L65.8547 58.4463L66.4744 57.6999L67.026 56.9018L48.9292 44.3957ZM48.3723 45.0665L64.1711 60.373L64.7586 59.7666L65.2978 59.1171L48.3723 45.0665ZM47.5356 45.9301L62.1126 62.4044L62.7459 61.844L63.3344 61.2366L47.5356 45.9301ZM46.8839 46.5069L60.8931 63.4666L61.1811 63.2287L61.4609 62.9811L46.8839 46.5069ZM46.4181 46.8917L58.8998 65.0053L59.6887 64.4616L60.4273 63.8514L46.4181 46.8917ZM45.8583 47.2774L58.3401 65.391L58.3401 65.391L45.8583 47.2774ZM45.2986 47.6632L56.9003 66.3528L57.3472 66.0753L57.7804 65.7768L45.2986 47.6632ZM44.8318 47.953L54.9567 67.4824L55.7114 67.0911L56.4336 66.6426L44.8318 47.953ZM44.2711 48.2438L54.396 67.7732L54.396 67.7732L44.2711 48.2438ZM43.7104 48.5346L52.6624 68.6289L53.2572 68.3638L53.8353 68.064L43.7104 48.5346ZM43.0558 48.8264L50.2935 69.6001L51.1648 69.2964L52.0077 68.9207L43.0558 48.8264ZM42.4941 49.0222L49.7317 69.796L49.7318 69.7959L42.4941 49.0222ZM41.9325 49.218L47.5399 70.4901L48.3646 70.2725L49.1701 69.9917L41.9325 49.218ZM41.183 49.4157L46.7904 70.6879L46.7904 70.6878L41.183 49.4157ZM40.8082 49.5146L44.6834 71.1697L45.5572 71.0132L46.4156 70.7867L40.8082 49.5146ZM39.683 49.7162L41.7516 71.6183L42.66 71.5323L43.5582 71.3714L39.683 49.7162ZM38.5568 49.8228L38.7788 71.8217L39.7041 71.8121L40.6254 71.7249L38.5568 49.8228ZM36.3025 49.8461L14.3037 50.0731L14.5257 72.072L36.5245 71.8449L36.3025 49.8461ZM36.2498 44.6216L58.2486 44.3946L57.7167 -8.32361L20.6184 29.1443L36.2498 44.6216ZM27.6017 53.3559L11.9702 37.8785L-3.67399 53.6786L12.2858 69.1526L27.6017 53.3559ZM36.4242 61.9099L21.1084 77.7065L58.955 114.401L58.4231 61.6829L36.4242 61.9099ZM36.3715 56.6854L36.1496 34.6865L14.1507 34.9135L14.3727 56.9124L36.3715 56.6854ZM39.0015 56.6582L39.2235 78.6571L39.841 78.6508L40.4572 78.6098L39.0015 56.6582ZM40.6913 56.5458L42.1469 78.4973L43.7241 78.3924L45.27 78.0631L40.6913 56.5458ZM42.566 56.1465L47.1448 77.6637L47.9444 77.4934L48.7293 77.2641L42.566 56.1465ZM44.2519 55.6541L50.4152 76.7717L51.5836 76.4305L52.7073 75.9624L44.2519 55.6541ZM46.1229 54.8748L54.5782 75.1831L55.2115 74.9193L55.8271 74.6166L46.1229 54.8748ZM47.8989 54.0014L57.6031 73.7433L58.4224 73.3404L59.2055 72.871L47.8989 54.0014ZM49.673 52.9381L60.9796 71.8077L62.4579 70.9217L63.7802 69.8164L49.673 52.9381ZM51.6292 51.3029L37.62 34.3432L37.5708 34.3838L37.5219 34.4246L51.6292 51.3029ZM53.0266 50.1485L67.0358 67.1082L68.7493 65.6927L70.1452 63.9631L53.0266 50.1485ZM54.4183 48.4241L71.5369 62.2387L71.9642 61.7093L72.3579 61.1546L54.4183 48.4241ZM55.4371 46.9886L73.3767 59.719L73.8471 59.0563L74.2673 58.3607L55.4371 46.9886ZM56.3611 45.4591L75.1912 56.8312L75.597 56.1596L75.9538 55.4607L56.3611 45.4591ZM57.1901 43.8355L76.7829 53.8372L77.4488 52.5331L77.936 51.1523L57.1901 43.8355ZM57.8294 42.0239L78.5753 49.3407L78.7986 48.7079L78.983 48.0627L57.8294 42.0239ZM58.3738 40.1183L79.5274 46.157L79.8365 45.075L80.0336 43.967L58.3738 40.1183ZM58.7294 38.1196L80.3892 41.9683L80.6691 40.3953L80.7187 38.7984L58.7294 38.1196ZM58.5784 13.84L51.6277 13.9117L52.0716 57.9095L59.0223 57.8377L58.5784 13.84ZM29.8508 36.1376L29.8546 36.5175L73.8523 36.0635L73.8485 35.6836L29.8508 36.1376ZM29.8546 36.5175L29.8585 36.8975L73.8561 36.4435L73.8523 36.0635L29.8546 36.5175ZM29.9434 34.7317L29.859 35.6825L73.6869 39.5602L73.7712 38.6093L29.9434 34.7317ZM30.082 33.9521L29.9047 34.999L73.2866 42.3374L73.4639 41.2906L30.082 33.9521ZM30.2978 33.1594L30.0266 34.2072L72.6222 45.2248L72.8934 44.177L30.2978 33.1594ZM30.3617 33.0451L30.0886 33.9029L72.0139 47.2448L72.287 46.387L30.3617 33.0451ZM30.8222 31.9307L30.4551 32.7895L70.9132 50.0758L71.2803 49.217L30.8222 31.9307ZM30.8655 31.8862L30.3135 33.0319L69.9507 52.1248L70.5028 50.9791L30.8655 31.8862ZM31.6428 30.66L30.9029 31.8076L67.8814 55.6443L68.6213 54.4967L31.6428 30.66ZM31.2953 31.22L30.8324 31.8897L67.026 56.9018L67.489 56.232L31.2953 31.22ZM32.0037 30.3452L31.4469 31.0159L65.2978 59.1171L65.8547 58.4463L32.0037 30.3452ZM32.5736 29.76L31.7368 30.6237L63.3344 61.2366L64.1711 60.373L32.5736 29.76ZM32.9586 29.4559L32.3069 30.0326L61.4609 62.9811L62.1126 62.4044L32.9586 29.4559ZM32.8746 29.5471L32.4088 29.932L60.4273 63.8514L60.8931 63.4666L32.8746 29.5471ZM33.9363 28.7781L33.3765 29.1639L58.3401 65.391L58.8998 65.0053L33.9363 28.7781ZM33.3765 29.1638L32.8168 29.5496L57.7804 65.7768L58.3401 65.391L33.3765 29.1638ZM33.6968 28.9736L33.2301 29.2634L56.4336 66.6426L56.9003 66.3528L33.6968 28.9736ZM34.7069 28.4237L34.1462 28.7145L54.396 67.7732L54.9567 67.4824L34.7069 28.4237ZM34.1462 28.7145L33.5855 29.0052L53.8353 68.064L54.396 67.7732L34.1462 28.7145ZM34.7585 28.4403L34.1038 28.7321L52.0077 68.9207L52.6624 68.6289L34.7585 28.4403ZM35.8181 28.0526L35.2565 28.2484L49.7318 69.7959L50.2935 69.6001L35.8181 28.0526ZM35.2565 28.2484L34.6949 28.4442L49.1701 69.9917L49.7317 69.796L35.2565 28.2484ZM36.3251 27.9458L35.5756 28.1436L46.7904 70.6878L47.5399 70.4901L36.3251 27.9458ZM35.5756 28.1435L35.2008 28.2424L46.4156 70.7867L46.7904 70.6879L35.5756 28.1435ZM36.933 27.8594L36.3704 27.9602L44.1208 71.2705L44.6834 71.1697L36.933 27.8594ZM36.3704 27.9602L35.8078 28.061L43.5582 71.3714L44.1208 71.2705L36.3704 27.9602ZM37.6144 27.8141L36.4882 27.9207L40.6254 71.7249L41.7516 71.6183L37.6144 27.8141ZM38.3348 27.8239L37.0198 27.8375L37.4638 71.8353L38.7788 71.8217L38.3348 27.8239ZM37.0198 27.8375L36.0806 27.8472L36.5245 71.8449L37.4638 71.8353L37.0198 27.8375ZM58.3014 49.6191L58.2486 44.3946L14.251 44.8486L14.3037 50.0731L58.3014 49.6191ZM20.6184 29.1443L11.9702 37.8785L43.2331 68.8332L51.8812 60.0989L20.6184 29.1443ZM12.2858 69.1526L21.1084 77.7065L51.7401 46.1132L42.9175 37.5592L12.2858 69.1526ZM58.4231 61.6829L58.3704 56.4584L14.3727 56.9124L14.4254 62.1369L58.4231 61.6829ZM36.5935 78.6843L38.2842 78.6668L37.8403 34.6691L36.1496 34.6865L36.5935 78.6843ZM38.2842 78.6668L39.2235 78.6571L38.7796 34.6594L37.8403 34.6691L38.2842 78.6668ZM40.4572 78.6098L42.1469 78.4973L39.2356 34.5943L37.5459 34.7067L40.4572 78.6098ZM45.27 78.0631L47.1448 77.6637L37.9873 34.6292L36.1125 35.0286L45.27 78.0631ZM48.7293 77.2641L50.4152 76.7717L38.0887 34.5364L36.4028 35.0288L48.7293 77.2641ZM52.7073 75.9624L54.5782 75.1831L37.6675 34.5664L35.7966 35.3457L52.7073 75.9624ZM55.8271 74.6166L57.6031 73.7433L38.1946 34.2596L36.4186 35.1329L55.8271 74.6166ZM59.2055 72.871L60.9796 71.8077L38.3663 34.0685L36.5922 35.1318L59.2055 72.871ZM63.7802 69.8164L65.7364 68.1812L37.5219 34.4246L35.5657 36.0598L63.7802 69.8164ZM65.6384 68.2627L67.0358 67.1082L39.0174 33.1887L37.62 34.3432L65.6384 68.2627ZM70.1452 63.9631L71.5369 62.2387L37.2996 34.6095L35.908 36.3339L70.1452 63.9631ZM72.3579 61.1546L73.3767 59.719L37.4975 34.2582L36.4787 35.6937L72.3579 61.1546ZM74.2673 58.3607L75.1912 56.8312L37.5309 34.0869L36.6069 35.6165L74.2673 58.3607ZM75.9538 55.4607L76.7829 53.8372L37.5974 33.8338L36.7683 35.4574L75.9538 55.4607ZM77.936 51.1523L78.5753 49.3407L37.0835 34.707L36.4442 36.5187L77.936 51.1523ZM78.983 48.0627L79.5274 46.157L37.2203 34.0795L36.6759 35.9851L78.983 48.0627ZM80.0336 43.967L80.3892 41.9683L37.0696 34.2708L36.714 36.2695L80.0336 43.967ZM80.7187 38.7984L80.7897 36.5176L36.811 35.1601L36.7401 37.4408L80.7187 38.7984Z" fill="white" mask="url(#path-3-inside-1)"/>
<ellipse cx="52.9225" cy="26.4106" rx="6.25546" ry="5.93155" fill="white"/>
<ellipse cx="22.0362" cy="45.4904" rx="6.25546" ry="6.03041" fill="white"/>
<mask id="path-7-inside-2" fill="white">
<path d="M23.0126 35.8388H16.0615L16.1555 33.5589L16.5312 31.564L17.0948 29.6641L17.7523 27.8591L18.5977 26.2442L19.5371 24.7243L20.5703 23.2994L21.9793 21.5894L23.3883 20.4495L25.3609 18.8346L27.1457 17.7896L28.9304 16.9347L30.8091 16.1747L32.4999 15.6997L34.3786 15.3197L36.0694 15.2248H37.0087H38.6995V10L47.4353 18.6446L38.6995 27.2892V22.0644H37.7602H36.4451L35.3179 22.1594L34.7543 22.2544L34.1907 22.3494L33.815 22.4444L33.0635 22.6344L32.4999 22.8244L31.9363 23.0144L31.2788 23.2994L30.7151 23.5844L30.1515 23.8693L29.6819 24.1543L29.1183 24.5343L28.5547 24.9143L28.085 25.2943L27.4275 25.8642L26.5821 26.7192L26.0185 27.3842L25.5488 28.0491L24.7973 29.1891L24.2337 30.329L23.858 31.184L23.5762 32.0389L23.2944 33.0839L23.1065 34.1288L23.0126 35.0788V35.4588V35.8388Z"/>
</mask>
<path d="M16.0615 35.8388L-5.91983 34.9331L-6.86356 57.8388H16.0615V35.8388ZM23.0126 35.8388V57.8388H45.0126V35.8388H23.0126ZM23.0126 35.0788L1.11937 32.914L1.0126 33.9937V35.0788H23.0126ZM23.1065 34.1288L1.45369 30.236L1.29922 31.0952L1.21331 31.964L23.1065 34.1288ZM23.2944 33.0839L2.05324 27.3556L1.80814 28.2645L1.64156 29.191L23.2944 33.0839ZM23.5762 32.0389L2.68194 25.152L2.49256 25.7266L2.33504 26.3107L23.5762 32.0389ZM23.858 31.184L3.71718 22.3326L3.29344 23.2968L2.96374 24.2971L23.858 31.184ZM24.2337 30.329L4.51245 20.5786L4.29254 21.0234L4.09292 21.4776L24.2337 30.329ZM24.7973 29.1891L6.42929 17.0806L5.67968 18.2178L5.07605 19.4387L24.7973 29.1891ZM25.5488 28.0491L7.57905 15.3571L7.37522 15.6457L7.18076 15.9407L25.5488 28.0491ZM26.0185 27.3842L9.23562 13.1597L8.60838 13.8997L8.04872 14.6921L26.0185 27.3842ZM26.5821 26.7192L10.9385 11.2505L10.345 11.8508L9.79922 12.4947L26.5821 26.7192ZM27.4275 25.8642L13.0174 9.24046L12.3785 9.79431L11.7839 10.3956L27.4275 25.8642ZM28.085 25.2943L14.2476 8.19088L13.9572 8.42582L13.675 8.67048L28.085 25.2943ZM28.5547 24.9143L16.2563 6.67288L15.462 7.20838L14.7173 7.8109L28.5547 24.9143ZM29.1183 24.5343L41.4167 42.7757L41.4167 42.7757L29.1183 24.5343ZM29.6819 24.1543L18.2693 5.346L17.8196 5.61887L17.3834 5.91293L29.6819 24.1543ZM30.1515 23.8693L20.2242 4.23652L19.4657 4.62007L18.739 5.06102L30.1515 23.8693ZM30.7151 23.5844L40.6425 43.2172L40.6425 43.2172L30.7151 23.5844ZM31.2788 23.2994L22.53 3.11376L21.9325 3.37272L21.3514 3.66656L31.2788 23.2994ZM31.9363 23.0144L24.9086 2.16704L24.0342 2.46181L23.1875 2.82877L31.9363 23.0144ZM33.0635 22.6344L27.671 1.30552L26.8441 1.51459L26.0358 1.78706L33.0635 22.6344ZM34.1907 22.3494L30.5341 0.655411L29.6588 0.802951L28.7982 1.02054L34.1907 22.3494ZM35.3179 22.1594L33.4704 0.237132L32.5611 0.31376L31.6613 0.46542L35.3179 22.1594ZM36.4451 22.0644V0.0644245H35.5197L34.5976 0.142137L36.4451 22.0644ZM38.6995 22.0644H60.6995V0.0644245H38.6995V22.0644ZM38.6995 27.2892H16.6995V80.0101L54.174 42.927L38.6995 27.2892ZM47.4353 18.6446L62.9098 34.2824L78.7126 18.6446L62.9098 3.0068L47.4353 18.6446ZM38.6995 10L54.174 -5.63779L16.6995 -42.7209V10H38.6995ZM38.6995 15.2248V37.2248H60.6995V15.2248H38.6995ZM36.0694 15.2248V-6.77525H35.4518L34.8353 -6.74061L36.0694 15.2248ZM34.3786 15.3197L33.1445 -6.64561L31.5664 -6.55695L30.0171 -6.2436L34.3786 15.3197ZM32.4999 15.6997L28.1385 -5.86362L27.3371 -5.70154L26.55 -5.48042L32.4999 15.6997ZM30.8091 16.1747L24.8592 -5.00544L23.6874 -4.67626L22.559 -4.21982L30.8091 16.1747ZM28.9304 16.9347L20.6804 -3.45986L20.0445 -3.20262L19.4258 -2.90627L28.9304 16.9347ZM27.1457 17.7896L17.6411 -2.05131L16.8178 -1.6569L16.0299 -1.19564L27.1457 17.7896ZM25.3609 18.8346L14.2452 -0.150691L12.7581 0.720009L11.4247 1.81164L25.3609 18.8346ZM23.3883 20.4495L37.2257 37.5529L37.2753 37.5128L37.3246 37.4724L23.3883 20.4495ZM21.9793 21.5894L8.14193 4.48605L6.4142 5.88385L5.00093 7.59896L21.9793 21.5894ZM20.5703 23.2994L3.59193 9.30887L3.15936 9.83382L2.76005 10.3845L20.5703 23.2994ZM19.5371 24.7243L1.72678 11.8094L1.24976 12.4673L0.822571 13.1585L19.5371 24.7243ZM18.5977 26.2442L-0.116764 14.6784L-0.529226 15.3458L-0.893099 16.0409L18.5977 26.2442ZM17.7523 27.8591L-1.7385 17.6558L-2.41754 18.953L-2.9187 20.3286L17.7523 27.8591ZM17.0948 29.6641L-3.57624 22.1336L-3.80592 22.764L-3.99675 23.4073L17.0948 29.6641ZM16.5312 31.564L-4.56035 25.3072L-4.88039 26.3861L-5.08867 27.4919L16.5312 31.564ZM16.1555 33.5589L-5.46441 29.4868L-5.76012 31.0569L-5.82589 32.6532L16.1555 33.5589ZM16.0615 57.8388H23.0126V13.8388H16.0615V57.8388ZM45.0126 35.8388V35.4588H1.0126V35.8388H45.0126ZM45.0126 35.4588V35.0788H1.0126V35.4588H45.0126ZM44.9058 37.2437L44.9998 36.2937L1.21331 31.964L1.11937 32.914L44.9058 37.2437ZM44.7594 38.0217L44.9472 36.9768L1.64156 29.191L1.45369 30.236L44.7594 38.0217ZM44.5356 38.8122L44.8174 37.7672L2.33504 26.3107L2.05324 27.3556L44.5356 38.8122ZM44.4705 38.9259L44.7523 38.0709L2.96374 24.2971L2.68194 25.152L44.4705 38.9259ZM43.9988 40.0354L44.3746 39.1804L4.09292 21.4776L3.71718 22.3326L43.9988 40.0354ZM43.955 40.0794L44.5186 38.9395L5.07605 19.4387L4.51245 20.5786L43.955 40.0794ZM43.1654 41.2975L43.9169 40.1576L7.18076 15.9407L6.42929 17.0806L43.1654 41.2975ZM43.5186 40.7412L43.9882 40.0762L8.04872 14.6921L7.57905 15.3571L43.5186 40.7412ZM42.8013 41.6086L43.3649 40.9437L9.79922 12.4947L9.23562 13.1597L42.8013 41.6086ZM42.2256 42.1879L43.071 41.3329L11.7839 10.3956L10.9385 11.2505L42.2256 42.1879ZM41.8375 42.488L42.4951 41.9181L13.675 8.67048L13.0174 9.24046L41.8375 42.488ZM41.9224 42.3977L42.3921 42.0177L14.7173 7.8109L14.2476 8.19088L41.9224 42.3977ZM40.8531 43.1557L41.4167 42.7757L16.8199 6.2929L16.2563 6.67288L40.8531 43.1557ZM41.4167 42.7757L41.9803 42.3957L17.3834 5.91293L16.8198 6.29291L41.4167 42.7757ZM41.0945 42.9626L41.5641 42.6777L18.739 5.06102L18.2693 5.346L41.0945 42.9626ZM40.0789 43.5022L40.6425 43.2172L20.7878 3.95153L20.2242 4.23652L40.0789 43.5022ZM40.6425 43.2172L41.2061 42.9322L21.3514 3.66656L20.7878 3.95155L40.6425 43.2172ZM40.0275 43.485L40.6851 43.2L23.1875 2.82877L22.53 3.11376L40.0275 43.485ZM38.964 43.8617L39.5276 43.6717L25.4722 1.97705L24.9086 2.16704L38.964 43.8617ZM39.5276 43.6717L40.0912 43.4817L26.0358 1.78706L25.4722 1.97705L39.5276 43.6717ZM38.456 43.9633L39.2075 43.7733L28.4225 1.11553L27.671 1.30552L38.456 43.9633ZM39.2075 43.7733L39.5832 43.6783L28.7982 1.02054L28.4225 1.11553L39.2075 43.7733ZM37.8472 44.0434L38.4108 43.9484L31.0977 0.560415L30.5341 0.655411L37.8472 44.0434ZM38.4108 43.9484L38.9744 43.8534L31.6613 0.46542L31.0977 0.560415L38.4108 43.9484ZM37.1654 44.0817L38.2926 43.9867L34.5976 0.142137L33.4704 0.237132L37.1654 44.0817ZM36.4451 44.0644H37.7602V0.0644245H36.4451V44.0644ZM37.7602 44.0644H38.6995V0.0644245H37.7602V44.0644ZM16.6995 22.0644V27.2892H60.6995V22.0644H16.6995ZM54.174 42.927L62.9098 34.2824L31.9608 3.0068L23.225 11.6514L54.174 42.927ZM62.9098 3.0068L54.174 -5.63779L23.225 25.6378L31.9608 34.2824L62.9098 3.0068ZM16.6995 10V15.2248H60.6995V10H16.6995ZM38.6995 -6.77525H37.0087V37.2248H38.6995V-6.77525ZM37.0087 -6.77525H36.0694V37.2248H37.0087V-6.77525ZM34.8353 -6.74061L33.1445 -6.64561L35.6126 37.2851L37.3034 37.1901L34.8353 -6.74061ZM30.0171 -6.2436L28.1385 -5.86362L36.8613 37.2631L38.74 36.8831L30.0171 -6.2436ZM26.55 -5.48042L24.8592 -5.00544L36.759 37.3549L38.4498 36.8799L26.55 -5.48042ZM22.559 -4.21982L20.6804 -3.45986L37.1805 37.3292L39.0591 36.5692L22.559 -4.21982ZM19.4258 -2.90627L17.6411 -2.05131L36.6503 37.6306L38.435 36.7756L19.4258 -2.90627ZM16.0299 -1.19564L14.2452 -0.150691L36.4767 37.8198L38.2614 36.7749L16.0299 -1.19564ZM11.4247 1.81164L9.45206 3.42657L37.3246 37.4724L39.2972 35.8575L11.4247 1.81164ZM9.55094 3.3461L8.14193 4.48605L35.8167 38.6928L37.2257 37.5529L9.55094 3.3461ZM5.00093 7.59896L3.59193 9.30887L37.5487 37.2899L38.9577 35.5799L5.00093 7.59896ZM2.76005 10.3845L1.72678 11.8094L37.3473 37.6392L38.3806 36.2142L2.76005 10.3845ZM0.822571 13.1585L-0.116764 14.6784L37.3122 37.81L38.2516 36.2901L0.822571 13.1585ZM-0.893099 16.0409L-1.7385 17.6558L37.2432 38.0625L38.0886 36.4475L-0.893099 16.0409ZM-2.9187 20.3286L-3.57624 22.1336L37.7658 37.1946L38.4234 35.3897L-2.9187 20.3286ZM-3.99675 23.4073L-4.56035 25.3072L37.6227 37.8207L38.1863 35.9208L-3.99675 23.4073ZM-5.08867 27.4919L-5.46441 29.4868L37.7753 37.6309L38.1511 35.636L-5.08867 27.4919ZM-5.82589 32.6532L-5.91983 34.9331L38.0429 36.7444L38.1368 34.4645L-5.82589 32.6532Z" fill="white" mask="url(#path-7-inside-2)"/>
<rect y="26" width="10.8493" height="19" rx="1" fill="#1782E5"/>
<ellipse cx="5.42474" cy="35.5" rx="2.46575" ry="2.5" fill="white"/>
</svg>
